<svg width="36" height="36" viewBox="0 0 36 36" xmlns="http://www.w3.org/2000/svg">
  <path d="M17.473 24.534a.743.743 0 0 1-.527.216.743.743 0 0 1-.527-.216l-.446-.442a.735.735 0 0 1 0-1.044l5.089-5.045-5.094-5.05a.73.73 0 0 1-.218-.523c0-.198.077-.383.218-.522l.446-.442a.743.743 0 0 1 .527-.216c.2 0 .386.077.526.216l6.066 6.013a.73.73 0 0 1 .217.523.73.73 0 0 1-.217.525l-6.06 6.007zm-6 0a.743.743 0 0 1-.527.216.743.743 0 0 1-.527-.216l-.446-.442a.735.735 0 0 1 0-1.044l5.089-5.045-5.094-5.05a.73.73 0 0 1-.218-.523c0-.198.077-.383.218-.522l.446-.442a.743.743 0 0 1 .527-.216c.2 0 .386.077.526.216l6.066 6.013a.73.73 0 0 1 .217.523.73.73 0 0 1-.217.525l-6.06 6.007z"/>
</svg>
