<svg width="24" height="24" fill="none" xmlns="http://www.w3.org/2000/svg">
  <g clip-path="url(#clip0_51_1679)">
    <path d="M12.836.028A12 12 0 0 0 .029 12.855C.469 19.208 6.082 24 13.083 24H19a5.006 5.006 0 0 0 5-5v-6.66A12.21 12.21 0 0 0 12.836.028ZM18.7 9.712l-6.793 6.707a2 2 0 0 1-2.823 0L5.3 12.715a1 1 0 1 1 1.4-1.43l3.793 3.707 6.806-6.7a1 1 0 0 1 1.4 1.424v-.004Z" fill="#06BC65"/>
  </g>
  <defs>
    <clipPath id="clip0_51_1679">
      <path fill="#fff" d="M0 0h24v24H0z"/>
    </clipPath>
  </defs>
</svg>
