<svg width="24" height="24" fill="none" xmlns="http://www.w3.org/2000/svg">
  <g clip-path="url(#clip0_140_1516)">
    <path d="M17 14a1 1 0 0 1-1 1H8a1 1 0 0 1 0-2h8a1 1 0 0 1 1 1Zm-4 3H8a1 1 0 1 0 0 2h5a1 1 0 0 0 0-2Zm9-6.515V19a5.006 5.006 0 0 1-5 5H7a5.006 5.006 0 0 1-5-5V5a5.006 5.006 0 0 1 5-5h4.515a6.958 6.958 0 0 1 4.95 2.05l3.484 3.486A6.95 6.95 0 0 1 22 10.485Zm-6.949-7.021A5.01 5.01 0 0 0 14 2.684V7a1 1 0 0 0 1 1h4.316a4.98 4.98 0 0 0-.781-1.05l-3.484-3.486ZM20 10.485c0-.165-.032-.323-.047-.485H15a3 3 0 0 1-3-3V2.047c-.162-.015-.321-.047-.485-.047H7a3 3 0 0 0-3 3v14a3 3 0 0 0 3 3h10a3 3 0 0 0 3-3v-8.515Z" fill="currentColor"/>
  </g>
  <defs>
    <clipPath id="clip0_140_1516">
      <path fill="#fff" d="M0 0h24v24H0z"/>
    </clipPath>
  </defs>
</svg>
