<svg width="24" height="24" fill="none" xmlns="http://www.w3.org/2000/svg">
  <g clip-path="url(#clip0_140_138)" fill="currentColor">
    <path d="M23.82 11.181C22.944 9.261 19.5 3 12 3S1.057 9.261.179 11.181a1.969 1.969 0 0 0 0 1.64C1.057 14.739 4.499 21 11.999 21s10.944-6.261 11.822-8.181a1.968 1.968 0 0 0 0-1.638ZM12 19c-6.307 0-9.25-5.366-10-6.989C2.75 10.366 5.693 5 12 5c6.292 0 9.236 5.343 10 7-.764 1.657-3.708 7-10 7Z"/>
    <path d="M12 7a5 5 0 1 0 5 5 5.006 5.006 0 0 0-5-5Zm0 8a3 3 0 1 1 0-6 3 3 0 0 1 0 6Z"/>
  </g>
  <defs>
    <clipPath id="clip0_140_138">
      <path fill="#fff" d="M0 0h24v24H0z"/>
    </clipPath>
  </defs>
</svg>
