<svg width="20" height="15" fill="none" xmlns="http://www.w3.org/2000/svg">
  <path d="M.22 15 5.46.1h2.92L13.62 15H11.1l-1.14-3.34H3.9L2.74 15H.22Zm4.36-5.44h4.66L6.6 1.76h.66l-2.68 7.8ZM15.168 15V4.18h2.26V15h-2.26Zm0-12.3V.1h2.26v2.6h-2.26Z" fill="#3143DE"/>
  <path d="M23.786 15V.1h5.42c1 0 1.88.187 2.64.56.76.36 1.353.893 1.78 1.6.44.693.66 1.527.66 2.5 0 1.027-.26 1.907-.78 2.64-.507.733-1.193 1.267-2.06 1.6l3.44 6h-2.68l-3.66-6.5 1.54.9h-3.94V15h-2.36Zm2.36-7.7h3.1c.547 0 1.02-.107 1.42-.32.4-.213.707-.507.92-.88.227-.387.34-.84.34-1.36 0-.52-.113-.967-.34-1.34a2.096 2.096 0 0 0-.92-.88c-.4-.213-.873-.32-1.42-.32h-3.1v5.1Zm14.98 7.94c-1.08 0-2.04-.247-2.88-.74a5.38 5.38 0 0 1-1.94-2.04c-.466-.867-.7-1.833-.7-2.9 0-1.093.234-2.06.7-2.9.48-.84 1.12-1.5 1.92-1.98.8-.493 1.707-.74 2.72-.74.814 0 1.54.14 2.18.42.64.28 1.18.667 1.62 1.16.44.48.774 1.033 1 1.66.24.627.36 1.293.36 2 0 .173-.006.353-.02.54-.013.187-.04.36-.08.52h-8.62v-1.8h7.34l-1.08.82c.134-.653.087-1.233-.14-1.74a2.58 2.58 0 0 0-1-1.22c-.44-.307-.96-.46-1.56-.46-.6 0-1.133.153-1.6.46-.466.293-.826.72-1.08 1.28-.253.547-.353 1.213-.3 2-.066.733.034 1.373.3 1.92.28.547.667.973 1.16 1.28.507.307 1.08.46 1.72.46.654 0 1.207-.147 1.66-.44a3.215 3.215 0 0 0 1.1-1.14l1.84.9a3.93 3.93 0 0 1-1 1.38c-.44.4-.973.72-1.6.96a5.786 5.786 0 0 1-2.02.34Zm11.186 0c-1.106 0-2.08-.273-2.92-.82a4.356 4.356 0 0 1-1.74-2.2l1.74-.82c.293.613.694 1.1 1.2 1.46.52.36 1.093.54 1.72.54.534 0 .967-.12 1.3-.36.334-.24.5-.567.5-.98 0-.267-.073-.48-.22-.64a1.63 1.63 0 0 0-.56-.42 3.012 3.012 0 0 0-.66-.24l-1.7-.48c-.933-.267-1.633-.667-2.1-1.2a2.889 2.889 0 0 1-.68-1.9c0-.653.167-1.22.5-1.7a3.239 3.239 0 0 1 1.38-1.14c.587-.267 1.247-.4 1.98-.4.987 0 1.867.247 2.64.74a3.9 3.9 0 0 1 1.64 2.02l-1.74.82a2.657 2.657 0 0 0-1.02-1.24 2.685 2.685 0 0 0-1.54-.46c-.493 0-.886.12-1.18.36-.293.227-.44.527-.44.9 0 .253.067.467.2.64.133.16.307.293.52.4.214.093.434.173.66.24l1.76.52c.894.253 1.58.653 2.06 1.2.48.533.72 1.173.72 1.92 0 .64-.173 1.207-.52 1.7-.333.48-.8.86-1.4 1.14-.6.267-1.3.4-2.1.4Zm10.095 0c-.814 0-1.527-.18-2.14-.54a3.91 3.91 0 0 1-1.44-1.54c-.334-.667-.5-1.433-.5-2.3V4.18h2.26v6.48c0 .493.1.927.3 1.3.2.373.48.667.84.88.36.2.773.3 1.24.3.48 0 .9-.107 1.26-.32.36-.213.64-.513.84-.9.213-.387.32-.84.32-1.36V4.18h2.24V15h-2.14v-2.12l.24.28a3.004 3.004 0 0 1-1.26 1.54c-.587.36-1.274.54-2.06.54Zm7.858-.24V4.18h2.16v2.34l-.28-.36c.227-.733.64-1.287 1.24-1.66s1.287-.56 2.06-.56c.867 0 1.634.233 2.3.7a3.25 3.25 0 0 1 1.36 1.82l-.64.06c.32-.867.807-1.513 1.46-1.94.667-.427 1.427-.64 2.28-.64.747 0 1.42.173 2.02.52a3.88 3.88 0 0 1 1.46 1.44c.36.613.54 1.313.54 2.1v7h-2.26V8.62c0-.547-.1-1.007-.3-1.38a1.978 1.978 0 0 0-.8-.88c-.333-.213-.726-.32-1.18-.32-.453 0-.853.107-1.2.32-.346.2-.62.493-.82.88-.2.387-.3.847-.3 1.38V15h-2.24V8.62c0-.547-.1-1.007-.3-1.38a1.978 1.978 0 0 0-.8-.88c-.333-.213-.733-.32-1.2-.32-.453 0-.853.107-1.2.32-.346.2-.62.493-.82.88-.186.387-.28.847-.28 1.38V15h-2.26Zm23.46.24c-1.08 0-2.04-.247-2.88-.74a5.38 5.38 0 0 1-1.94-2.04c-.467-.867-.7-1.833-.7-2.9 0-1.093.233-2.06.7-2.9.48-.84 1.12-1.5 1.92-1.98.8-.493 1.706-.74 2.72-.74.813 0 1.54.14 2.18.42.64.28 1.18.667 1.62 1.16.44.48.773 1.033 1 1.66.24.627.36 1.293.36 2 0 .173-.007.353-.02.54-.014.187-.04.36-.08.52h-8.62v-1.8h7.34l-1.08.82c.133-.653.086-1.233-.14-1.74a2.58 2.58 0 0 0-1-1.22c-.44-.307-.96-.46-1.56-.46-.6 0-1.134.153-1.6.46-.467.293-.827.72-1.08 1.28-.254.547-.354 1.213-.3 2-.067.733.033 1.373.3 1.92.28.547.666.973 1.16 1.28.506.307 1.08.46 1.72.46.653 0 1.206-.147 1.66-.44a3.213 3.213 0 0 0 1.1-1.14l1.84.9a3.928 3.928 0 0 1-1 1.38c-.44.4-.974.72-1.6.96a5.785 5.785 0 0 1-2.02.34Z" fill="#171618"/>
</svg>
