<svg width="32" height="32" fill="none" xmlns="http://www.w3.org/2000/svg">
  <path d="M8 0C6.9 0 6 .9 6 2v28c0 1.1.9 2 2 2h20c1.1 0 2-.9 2-2V8l-8-8H8Z" fill="#E2E5E7"/>
  <path d="M24 8h6l-8-8v6c0 1.1.9 2 2 2Z" fill="#B0B7BD"/>
  <path d="m30 14-6-6h6v6Z" fill="#CAD1D8"/>
  <path d="M26 26c0 .55-.45 1-1 1H3c-.55 0-1-.45-1-1V16c0-.55.45-1 1-1h22c.55 0 1 .45 1 1v10Z" fill="#50BEE8"/>
  <path d="M3.652 23.8c-.264 0-.552-.145-.552-.496v-4.541c0-.288.288-.496.552-.496h1.83c3.655 0 3.574 5.533.072 5.533H3.652Zm.504-4.558v3.582h1.327c2.159 0 2.254-3.582 0-3.582H4.156Z" fill="#fff"/>
  <path d="M11.617 24.08c-1.48.064-3.015-.92-3.015-2.879 0-1.967 1.535-2.934 3.015-2.934 1.399.071 2.862 1.039 2.862 2.934 0 1.896-1.463 2.879-2.862 2.879Zm-.088-4.773c-.896 0-1.871.632-1.871 1.895 0 1.256.976 1.896 1.87 1.896.92 0 1.904-.64 1.904-1.896 0-1.264-.983-1.895-1.903-1.895ZM14.879 21.137c0-1.543.968-2.87 2.807-2.87.696 0 1.248.208 1.83.712.217.199.24.551.025.775a.543.543 0 0 1-.736-.024c-.327-.344-.663-.439-1.12-.439-1.23 0-1.821.872-1.821 1.847 0 .992.583 1.903 1.822 1.903.456 0 .88-.185 1.248-.512.247-.192.59-.097.735.096.128.176.19.472-.088.751-.56.521-1.231.625-1.896.625-1.934 0-2.806-1.321-2.806-2.864ZM22.62 20.213l1.393-1.743c.416-.543 1.223.152.768.672-.48.568-.983 1.184-1.464 1.814l1.632 2.031c.439.6-.44 1.176-.872.584l-1.471-1.887-1.447 1.927c-.408.583-1.312-.072-.855-.616l1.606-2.039c-.503-.63-.991-1.246-1.48-1.814-.503-.6.433-1.215.8-.655l1.39 1.726Z" fill="#fff"/>
  <path d="M25 27H6v1h19c.55 0 1-.45 1-1v-1c0 .55-.45 1-1 1Z" fill="#CAD1D8"/>
</svg>
