<svg width="24" height="25" fill="none" xmlns="http://www.w3.org/2000/svg">
  <g clip-path="url(#clip0_140_1437)" fill="currentColor">
    <path d="M21 4.5h-3.1a5.01 5.01 0 0 0-4.9-4h-2a5.009 5.009 0 0 0-4.9 4H3a1 1 0 0 0 0 2h1v13a5.006 5.006 0 0 0 5 5h6a5.006 5.006 0 0 0 5-5v-13h1a1 1 0 1 0 0-2Zm-10-2h2a3.006 3.006 0 0 1 2.829 2H8.171A3.006 3.006 0 0 1 11 2.5Zm7 17a3 3 0 0 1-3 3H9a3 3 0 0 1-3-3v-13h12v13Z"/>
    <path d="M10 18.5a1 1 0 0 0 1-1v-6a1 1 0 0 0-2 0v6a1 1 0 0 0 1 1ZM14 18.5a1 1 0 0 0 1-1v-6a1 1 0 1 0-2 0v6a1 1 0 0 0 1 1Z"/>
  </g>
  <defs>
    <clipPath id="clip0_140_1437">
      <path fill="#fff" d="M0 .5h24v24H0z"/>
    </clipPath>
  </defs>
</svg>
