<?xml version="1.0" standalone="no"?>
<!DOCTYPE svg PUBLIC "-//W3C//DTD SVG 20010904//EN"
 "http://www.w3.org/TR/2001/REC-SVG-20010904/DTD/svg10.dtd">
<svg version="1.0" xmlns="http://www.w3.org/2000/svg"
 width="200.000000pt" height="200.000000pt" viewBox="0 0 200.000000 200.000000"
 preserveAspectRatio="xMidYMid meet">
<metadata>
Created by potrace 1.14, written by Peter Selinger 2001-2017
</metadata>
<g transform="translate(0.000000,200.000000) scale(0.100000,-0.100000)"
fill="#000000" stroke="none">
<path d="M487 1572 c-71 -201 -237 -676 -277 -787 -16 -44 -58 -163 -94 -265
-35 -102 -71 -204 -80 -227 l-15 -43 127 0 127 0 55 161 c30 88 59 164 65 168
5 4 143 7 305 6 l294 0 43 -125 c24 -69 50 -144 59 -167 l16 -43 124 0 c68 0
124 1 124 3 0 2 -32 93 -71 202 -39 110 -79 227 -91 260 -11 33 -30 89 -43
125 -42 115 -315 892 -315 896 0 2 -66 4 -147 4 l-148 0 -58 -168z m325 -446
c59 -175 108 -321 108 -325 0 -6 -450 -8 -457 -2 -3 2 167 502 214 631 10 26
18 39 21 30 3 -8 54 -158 114 -334z"/>
<path d="M1519 1733 c-4 -33 -3 -237 2 -244 3 -6 54 -8 114 -7 l108 3 -1 115
c0 63 -1 121 -1 128 -1 9 -30 12 -111 12 -60 0 -110 -3 -111 -7z"/>
<path d="M1518 1318 c-3 -11 -2 -1035 1 -1060 1 -5 51 -8 111 -8 61 0 110 3
111 8 1 10 1 1033 0 1055 -1 15 -13 17 -110 17 -78 0 -110 -3 -113 -12z"/>
</g>
</svg>
